<svg width="24" height="24" viewBox="0 0 24 24" fill="none" xmlns="http://www.w3.org/2000/svg">
<style>svg>rect,g[id="Frame 1"]>rect,g[id="Navigation/Icon"]>rect,g[id^="Active="]>rect,foreignObject{display:none}</style>
<rect width="24" height="24" fill="#F5F5F5"/>
<g id="Frame 1">
<rect width="878" height="670" transform="translate(-202 -212)" fill="black"/>
<g id="Navigation/Premium Sand Tab Bar">
<g clip-path="url(#clip0_7_2)">
<foreignObject x="-137" y="-60" width="438" height="144"><div xmlns="http://www.w3.org/1999/xhtml" style="backdrop-filter:blur(20px);clip-path:url(#bgblur_1_7_2_clip_path);height:100%;width:100%"></div></foreignObject><g id="Active=Events" filter="url(#filter0_di_7_2)" data-figma-bg-blur-radius="40">
<rect x="-97" y="-20" width="358" height="64" rx="32" fill="#020303" fill-opacity="0.13"/>
<rect x="-97" y="-20" width="358" height="64" rx="32" fill="url(#paint0_linear_7_2)"/>
<rect x="-96.675" y="-19.675" width="357.35" height="63.35" rx="31.675" stroke="#F1D5AC" stroke-opacity="0.22" stroke-width="0.65"/>
<g id="Tab/Events">
<g id="Events / Filled" clip-path="url(#clip2_7_2)">
<g id="Vector" filter="url(#filter1_ddi_7_2)">
<path d="M17.6 4.19995H6.39995C4.3565 4.19995 2.69995 5.8565 2.69995 7.89995V17.6C2.69995 19.6434 4.3565 21.2999 6.39995 21.2999H17.6C19.6434 21.2999 21.2999 19.6434 21.2999 17.6V7.89995C21.2999 5.8565 19.6434 4.19995 17.6 4.19995Z" fill="url(#paint1_linear_7_2)"/>
</g>
<g id="Vector_2">
<path d="M7.2 2.80005V6.40005V2.80005ZM16.8 2.80005V6.40005V2.80005ZM3 9.10005H21H3Z" fill="#060707" fill-opacity="0.92"/>
<path d="M7.2 2.80005V6.40005M16.8 2.80005V6.40005M3 9.10005H21" stroke="#060707" stroke-opacity="0.86" stroke-width="1.65" stroke-linecap="round"/>
</g>
<path id="Vector_3" d="M7.99995 14.05C8.57985 14.05 9.04995 13.5799 9.04995 13C9.04995 12.4201 8.57985 11.95 7.99995 11.95C7.42005 11.95 6.94995 12.4201 6.94995 13C6.94995 13.5799 7.42005 14.05 7.99995 14.05Z" fill="#060707" fill-opacity="0.92"/>
<path id="Vector_4" d="M12 14.05C12.5799 14.05 13.05 13.5799 13.05 13C13.05 12.4201 12.5799 11.95 12 11.95C11.4201 11.95 10.95 12.4201 10.95 13C10.95 13.5799 11.4201 14.05 12 14.05Z" fill="#060707" fill-opacity="0.92"/>
<path id="Vector_5" d="M16 14.05C16.5799 14.05 17.05 13.5799 17.05 13C17.05 12.4201 16.5799 11.95 16 11.95C15.4201 11.95 14.95 12.4201 14.95 13C14.95 13.5799 15.4201 14.05 16 14.05Z" fill="#060707" fill-opacity="0.92"/>
<path id="Vector_6" d="M7.99995 18.05C8.57985 18.05 9.04995 17.5799 9.04995 17C9.04995 16.4201 8.57985 15.95 7.99995 15.95C7.42005 15.95 6.94995 16.4201 6.94995 17C6.94995 17.5799 7.42005 18.05 7.99995 18.05Z" fill="#060707" fill-opacity="0.92"/>
<path id="Vector_7" d="M12 18.05C12.5799 18.05 13.05 17.5799 13.05 17C13.05 16.4201 12.5799 15.95 12 15.95C11.4201 15.95 10.95 16.4201 10.95 17C10.95 17.5799 11.4201 18.05 12 18.05Z" fill="#060707" fill-opacity="0.92"/>
</g>
</g>
</g>
</g>
</g>
</g>
<defs>
<filter id="filter0_di_7_2" x="-137" y="-60" width="438" height="144" filterUnits="userSpaceOnUse" color-interpolation-filters="sRGB">
<feFlood flood-opacity="0" result="BackgroundImageFix"/>
<feColorMatrix in="SourceAlpha" type="matrix" values="0 0 0 0 0 0 0 0 0 0 0 0 0 0 0 0 0 0 127 0" result="hardAlpha"/>
<feOffset dy="10"/>
<feGaussianBlur stdDeviation="10"/>
<feColorMatrix type="matrix" values="0 0 0 0 0 0 0 0 0 0 0 0 0 0 0 0 0 0 0.28 0"/>
<feBlend mode="normal" in2="BackgroundImageFix" result="effect1_dropShadow_7_2"/>
<feBlend mode="normal" in="SourceGraphic" in2="effect1_dropShadow_7_2" result="shape"/>
<feColorMatrix in="SourceAlpha" type="matrix" values="0 0 0 0 0 0 0 0 0 0 0 0 0 0 0 0 0 0 127 0" result="hardAlpha"/>
<feOffset dy="1"/>
<feGaussianBlur stdDeviation="1"/>
<feComposite in2="hardAlpha" operator="arithmetic" k2="-1" k3="1"/>
<feColorMatrix type="matrix" values="0 0 0 0 0.945 0 0 0 0 0.835 0 0 0 0 0.675 0 0 0 0.085 0"/>
<feBlend mode="screen" in2="shape" result="effect2_innerShadow_7_2"/>
</filter>
<clipPath id="bgblur_1_7_2_clip_path" transform="translate(137 60)"><rect x="-97" y="-20" width="358" height="64" rx="32"/>
</clipPath><filter id="filter1_ddi_7_2" x="-2.30005" y="-0.800049" width="28.6001" height="27.1" filterUnits="userSpaceOnUse" color-interpolation-filters="sRGB">
<feFlood flood-opacity="0" result="BackgroundImageFix"/>
<feColorMatrix in="SourceAlpha" type="matrix" values="0 0 0 0 0 0 0 0 0 0 0 0 0 0 0 0 0 0 127 0" result="hardAlpha"/>
<feOffset dy="2"/>
<feGaussianBlur stdDeviation="1.5"/>
<feColorMatrix type="matrix" values="0 0 0 0 0 0 0 0 0 0 0 0 0 0 0 0 0 0 0.48 0"/>
<feBlend mode="normal" in2="BackgroundImageFix" result="effect1_dropShadow_7_2"/>
<feColorMatrix in="SourceAlpha" type="matrix" values="0 0 0 0 0 0 0 0 0 0 0 0 0 0 0 0 0 0 127 0" result="hardAlpha"/>
<feOffset/>
<feGaussianBlur stdDeviation="2.5"/>
<feColorMatrix type="matrix" values="0 0 0 0 0.835 0 0 0 0 0.665 0 0 0 0 0.408 0 0 0 0.17 0"/>
<feBlend mode="screen" in2="effect1_dropShadow_7_2" result="effect2_dropShadow_7_2"/>
<feBlend mode="normal" in="SourceGraphic" in2="effect2_dropShadow_7_2" result="shape"/>
<feColorMatrix in="SourceAlpha" type="matrix" values="0 0 0 0 0 0 0 0 0 0 0 0 0 0 0 0 0 0 127 0" result="hardAlpha"/>
<feOffset dy="-0.5"/>
<feGaussianBlur stdDeviation="0.5"/>
<feComposite in2="hardAlpha" operator="arithmetic" k2="-1" k3="1"/>
<feColorMatrix type="matrix" values="0 0 0 0 1 0 0 0 0 0.94 0 0 0 0 0.82 0 0 0 0.24 0"/>
<feBlend mode="screen" in2="shape" result="effect3_innerShadow_7_2"/>
</filter>
<linearGradient id="paint0_linear_7_2" x1="82" y1="-20" x2="82" y2="44" gradientUnits="userSpaceOnUse">
<stop stop-color="#F1D5AC" stop-opacity="0.055"/>
<stop offset="0.48" stop-color="#050505" stop-opacity="0.012"/>
<stop offset="1" stop-opacity="0.055"/>
</linearGradient>
<linearGradient id="paint1_linear_7_2" x1="2.69995" y1="12.75" x2="21.2999" y2="12.75" gradientUnits="userSpaceOnUse">
<stop stop-color="#F1D5AC"/>
<stop offset="0.48" stop-color="#DBAB59"/>
<stop offset="1" stop-color="#DBAB59"/>
</linearGradient>
<clipPath id="clip0_7_2">
<rect x="-113" y="-116" width="390" height="416" rx="5" fill="white"/>
</clipPath>
<clipPath id="clip2_7_2">
<rect width="24" height="24" fill="white"/>
</clipPath>
</defs>
</svg>
