<svg width="32" height="32" viewBox="0 0 24 24" fill="none" xmlns="http://www.w3.org/2000/svg" shape-rendering="geometricPrecision"><path d="M4 4.2h10.5a3 3 0 0 1 3 3v5.1a3 3 0 0 1-3 3H9.3l-3.9 2.9v-2.9H4a3 3 0 0 1-3-3V7.2a3 3 0 0 1 3-3Z" stroke="#B9B2A7" stroke-opacity=".86" stroke-width="1.65" stroke-linejoin="round"/><path d="M17.2 8.3h1.9c2.15 0 3.4 1.25 3.4 2.9v3.9a2.9 2.9 0 0 1-2.9 2.9h-1.1v2.6L15.3 18h-3.1" stroke="#B9B2A7" stroke-opacity=".86" stroke-width="1.65" stroke-linecap="round" stroke-linejoin="round"/></svg>