<svg width="24" height="24" viewBox="0 0 24 24" fill="none" xmlns="http://www.w3.org/2000/svg">
<style>svg>rect,g[id="Frame 1"]>rect,g[id="Navigation/Icon"]>rect,g[id^="Active="]>rect,foreignObject{display:none}</style>
<rect width="24" height="24" fill="#F5F5F5"/>
<g id="Frame 1">
<rect width="878" height="670" transform="translate(-610 -132)" fill="black"/>
<g id="Navigation/Icon">
<rect x="-56" y="-16" width="224" height="88" rx="16" fill="#050605"/>
<g id="Icon=Events, State=Outline">
<g id="Vector" filter="url(#filter0_d_7_2)">
<path d="M17.55 4.75H6.45C4.68269 4.75 3.25 6.18269 3.25 7.95V17.55C3.25 19.3173 4.68269 20.75 6.45 20.75H17.55C19.3173 20.75 20.75 19.3173 20.75 17.55V7.95C20.75 6.18269 19.3173 4.75 17.55 4.75Z" stroke="#A8A399" stroke-opacity="0.74" stroke-width="1.7"/>
</g>
<g id="Vector_2" filter="url(#filter1_d_7_2)">
<path d="M7.4001 2.90002V6.50002M16.6001 2.90002V6.50002M3.6001 9.20002H20.4001" stroke="#A8A399" stroke-opacity="0.74" stroke-width="1.7" stroke-linecap="round"/>
</g>
<g id="Vector_3" filter="url(#filter2_d_7_2)">
<path d="M8 14C8.55228 14 9 13.5523 9 13C9 12.4477 8.55228 12 8 12C7.44772 12 7 12.4477 7 13C7 13.5523 7.44772 14 8 14Z" fill="#A8A399" fill-opacity="0.74"/>
</g>
<g id="Vector_4" filter="url(#filter3_d_7_2)">
<path d="M12 14C12.5523 14 13 13.5523 13 13C13 12.4477 12.5523 12 12 12C11.4477 12 11 12.4477 11 13C11 13.5523 11.4477 14 12 14Z" fill="#A8A399" fill-opacity="0.74"/>
</g>
<g id="Vector_5" filter="url(#filter4_d_7_2)">
<path d="M16 14C16.5523 14 17 13.5523 17 13C17 12.4477 16.5523 12 16 12C15.4477 12 15 12.4477 15 13C15 13.5523 15.4477 14 16 14Z" fill="#A8A399" fill-opacity="0.74"/>
</g>
<g id="Vector_6" filter="url(#filter5_d_7_2)">
<path d="M8 18C8.55228 18 9 17.5523 9 17C9 16.4477 8.55228 16 8 16C7.44772 16 7 16.4477 7 17C7 17.5523 7.44772 18 8 18Z" fill="#A8A399" fill-opacity="0.74"/>
</g>
<g id="Vector_7" filter="url(#filter6_d_7_2)">
<path d="M12 18C12.5523 18 13 17.5523 13 17C13 16.4477 12.5523 16 12 16C11.4477 16 11 16.4477 11 17C11 17.5523 11.4477 18 12 18Z" fill="#A8A399" fill-opacity="0.74"/>
</g>
</g>
</g>
</g>
<defs>
<filter id="filter0_d_7_2" x="1.1999" y="3.70002" width="21.6002" height="20.1" filterUnits="userSpaceOnUse" color-interpolation-filters="sRGB">
<feFlood flood-opacity="0" result="BackgroundImageFix"/>
<feColorMatrix in="SourceAlpha" type="matrix" values="0 0 0 0 0 0 0 0 0 0 0 0 0 0 0 0 0 0 127 0" result="hardAlpha"/>
<feOffset dy="1"/>
<feGaussianBlur stdDeviation="0.6"/>
<feColorMatrix type="matrix" values="0 0 0 0 0 0 0 0 0 0 0 0 0 0 0 0 0 0 0.22 0"/>
<feBlend mode="normal" in2="BackgroundImageFix" result="effect1_dropShadow_7_2"/>
<feBlend mode="normal" in="SourceGraphic" in2="effect1_dropShadow_7_2" result="shape"/>
</filter>
<filter id="filter1_d_7_2" x="1.55" y="1.85005" width="20.9" height="10.4" filterUnits="userSpaceOnUse" color-interpolation-filters="sRGB">
<feFlood flood-opacity="0" result="BackgroundImageFix"/>
<feColorMatrix in="SourceAlpha" type="matrix" values="0 0 0 0 0 0 0 0 0 0 0 0 0 0 0 0 0 0 127 0" result="hardAlpha"/>
<feOffset dy="1"/>
<feGaussianBlur stdDeviation="0.6"/>
<feColorMatrix type="matrix" values="0 0 0 0 0 0 0 0 0 0 0 0 0 0 0 0 0 0 0.22 0"/>
<feBlend mode="normal" in2="BackgroundImageFix" result="effect1_dropShadow_7_2"/>
<feBlend mode="normal" in="SourceGraphic" in2="effect1_dropShadow_7_2" result="shape"/>
</filter>
<filter id="filter2_d_7_2" x="5.8" y="11.8" width="4.4" height="4.4" filterUnits="userSpaceOnUse" color-interpolation-filters="sRGB">
<feFlood flood-opacity="0" result="BackgroundImageFix"/>
<feColorMatrix in="SourceAlpha" type="matrix" values="0 0 0 0 0 0 0 0 0 0 0 0 0 0 0 0 0 0 127 0" result="hardAlpha"/>
<feOffset dy="1"/>
<feGaussianBlur stdDeviation="0.6"/>
<feColorMatrix type="matrix" values="0 0 0 0 0 0 0 0 0 0 0 0 0 0 0 0 0 0 0.22 0"/>
<feBlend mode="normal" in2="BackgroundImageFix" result="effect1_dropShadow_7_2"/>
<feBlend mode="normal" in="SourceGraphic" in2="effect1_dropShadow_7_2" result="shape"/>
</filter>
<filter id="filter3_d_7_2" x="9.8" y="11.8" width="4.4" height="4.4" filterUnits="userSpaceOnUse" color-interpolation-filters="sRGB">
<feFlood flood-opacity="0" result="BackgroundImageFix"/>
<feColorMatrix in="SourceAlpha" type="matrix" values="0 0 0 0 0 0 0 0 0 0 0 0 0 0 0 0 0 0 127 0" result="hardAlpha"/>
<feOffset dy="1"/>
<feGaussianBlur stdDeviation="0.6"/>
<feColorMatrix type="matrix" values="0 0 0 0 0 0 0 0 0 0 0 0 0 0 0 0 0 0 0.22 0"/>
<feBlend mode="normal" in2="BackgroundImageFix" result="effect1_dropShadow_7_2"/>
<feBlend mode="normal" in="SourceGraphic" in2="effect1_dropShadow_7_2" result="shape"/>
</filter>
<filter id="filter4_d_7_2" x="13.8" y="11.8" width="4.4" height="4.4" filterUnits="userSpaceOnUse" color-interpolation-filters="sRGB">
<feFlood flood-opacity="0" result="BackgroundImageFix"/>
<feColorMatrix in="SourceAlpha" type="matrix" values="0 0 0 0 0 0 0 0 0 0 0 0 0 0 0 0 0 0 127 0" result="hardAlpha"/>
<feOffset dy="1"/>
<feGaussianBlur stdDeviation="0.6"/>
<feColorMatrix type="matrix" values="0 0 0 0 0 0 0 0 0 0 0 0 0 0 0 0 0 0 0.22 0"/>
<feBlend mode="normal" in2="BackgroundImageFix" result="effect1_dropShadow_7_2"/>
<feBlend mode="normal" in="SourceGraphic" in2="effect1_dropShadow_7_2" result="shape"/>
</filter>
<filter id="filter5_d_7_2" x="5.8" y="15.8" width="4.4" height="4.4" filterUnits="userSpaceOnUse" color-interpolation-filters="sRGB">
<feFlood flood-opacity="0" result="BackgroundImageFix"/>
<feColorMatrix in="SourceAlpha" type="matrix" values="0 0 0 0 0 0 0 0 0 0 0 0 0 0 0 0 0 0 127 0" result="hardAlpha"/>
<feOffset dy="1"/>
<feGaussianBlur stdDeviation="0.6"/>
<feColorMatrix type="matrix" values="0 0 0 0 0 0 0 0 0 0 0 0 0 0 0 0 0 0 0.22 0"/>
<feBlend mode="normal" in2="BackgroundImageFix" result="effect1_dropShadow_7_2"/>
<feBlend mode="normal" in="SourceGraphic" in2="effect1_dropShadow_7_2" result="shape"/>
</filter>
<filter id="filter6_d_7_2" x="9.8" y="15.8" width="4.4" height="4.4" filterUnits="userSpaceOnUse" color-interpolation-filters="sRGB">
<feFlood flood-opacity="0" result="BackgroundImageFix"/>
<feColorMatrix in="SourceAlpha" type="matrix" values="0 0 0 0 0 0 0 0 0 0 0 0 0 0 0 0 0 0 127 0" result="hardAlpha"/>
<feOffset dy="1"/>
<feGaussianBlur stdDeviation="0.6"/>
<feColorMatrix type="matrix" values="0 0 0 0 0 0 0 0 0 0 0 0 0 0 0 0 0 0 0.22 0"/>
<feBlend mode="normal" in2="BackgroundImageFix" result="effect1_dropShadow_7_2"/>
<feBlend mode="normal" in="SourceGraphic" in2="effect1_dropShadow_7_2" result="shape"/>
</filter>
</defs>
</svg>
